<svg id="visual" viewBox="0 0 900 600" width="900" height="600" xmlns="http://www.w3.org/2000/svg" xmlns:xlink="http://www.w3.org/1999/xlink" version="1.1"><rect x="0" y="0" width="900" height="600" fill="#245ac7"></rect><path d="M0 451L25 457.8C50 464.7 100 478.3 150 475C200 471.7 250 451.3 300 441.2C350 431 400 431 450 441.7C500 452.3 550 473.7 600 474.2C650 474.7 700 454.3 750 448.5C800 442.7 850 451.3 875 455.7L900 460L900 601L875 601C850 601 800 601 750 601C700 601 650 601 600 601C550 601 500 601 450 601C400 601 350 601 300 601C250 601 200 601 150 601C100 601 50 601 25 601L0 601Z" fill="#ee7eb8"></path><path d="M0 490L25 487.8C50 485.7 100 481.3 150 478.3C200 475.3 250 473.7 300 471.5C350 469.3 400 466.7 450 471.2C500 475.7 550 487.3 600 494.5C650 501.7 700 504.3 750 497.7C800 491 850 475 875 467L900 459L900 601L875 601C850 601 800 601 750 601C700 601 650 601 600 601C550 601 500 601 450 601C400 601 350 601 300 601C250 601 200 601 150 601C100 601 50 601 25 601L0 601Z" fill="#e2639e"></path><path d="M0 522L25 523.3C50 524.7 100 527.3 150 525C200 522.7 250 515.3 300 510.8C350 506.3 400 504.7 450 501C500 497.3 550 491.7 600 491.5C650 491.3 700 496.7 750 507C800 517.3 850 532.7 875 540.3L900 548L900 601L875 601C850 601 800 601 750 601C700 601 650 601 600 601C550 601 500 601 450 601C400 601 350 601 300 601C250 601 200 601 150 601C100 601 50 601 25 601L0 601Z" fill="#d44683"></path><path d="M0 571L25 565C50 559 100 547 150 543C200 539 250 543 300 547.3C350 551.7 400 556.3 450 557.5C500 558.7 550 556.3 600 555.3C650 554.3 700 554.7 750 557.7C800 560.7 850 566.3 875 569.2L900 572L900 601L875 601C850 601 800 601 750 601C700 601 650 601 600 601C550 601 500 601 450 601C400 601 350 601 300 601C250 601 200 601 150 601C100 601 50 601 25 601L0 601Z" fill="#c62368"></path></svg>